<?xml version="1.0" encoding="UTF-8" standalone="no"?>
<!-- Created with Inkscape (http://www.inkscape.org/) -->

<svg
   xmlns:ns0="http://www.iki.fi/pav/software/textext/"
   xmlns:dc="http://purl.org/dc/elements/1.1/"
   xmlns:cc="http://creativecommons.org/ns#"
   xmlns:rdf="http://www.w3.org/1999/02/22-rdf-syntax-ns#"
   xmlns:svg="http://www.w3.org/2000/svg"
   xmlns="http://www.w3.org/2000/svg"
   xmlns:xlink="http://www.w3.org/1999/xlink"
   xmlns:sodipodi="http://sodipodi.sourceforge.net/DTD/sodipodi-0.dtd"
   xmlns:inkscape="http://www.inkscape.org/namespaces/inkscape"
   width="53.134743mm"
   height="11.362081mm"
   viewBox="0 0 188.27271 40.25934"
   id="svg4844"
   version="1.1"
   inkscape:version="0.91 r13725"
   sodipodi:docname="and_gate.svg">
  <sodipodi:namedview
     id="base"
     pagecolor="#ffffff"
     bordercolor="#666666"
     borderopacity="1.0"
     inkscape:pageopacity="0.0"
     inkscape:pageshadow="2"
     inkscape:zoom="1.979899"
     inkscape:cx="68.639784"
     inkscape:cy="17.7401"
     inkscape:document-units="px"
     inkscape:current-layer="layer1"
     showgrid="false"
     inkscape:window-width="1366"
     inkscape:window-height="717"
     inkscape:window-x="0"
     inkscape:window-y="0"
     inkscape:window-maximized="1"
     fit-margin-top="0"
     fit-margin-left="0"
     fit-margin-right="0"
     fit-margin-bottom="0">
    <inkscape:grid
       originy="-887.97414"
       originx="-279.43508"
       id="grid5453"
       type="xygrid" />
  </sodipodi:namedview>
  <defs
     id="defs4846" />
  <metadata
     id="metadata4849">
    <rdf:RDF>
      <cc:Work
         rdf:about="">
        <dc:format>image/svg+xml</dc:format>
        <dc:type
           rdf:resource="http://purl.org/dc/dcmitype/StillImage" />
        <dc:title />
      </cc:Work>
    </rdf:RDF>
  </metadata>
  <g
     transform="translate(-279.43507,-124.12868)"
     id="layer1"
     inkscape:groupmode="layer"
     inkscape:label="Layer 1">
    <path
       inkscape:connector-curvature="0"
       id="path4189"
       d="m 351.31844,127.35612 -32.95209,21.90254"
       style="fill:none;fill-rule:evenodd;stroke:#00b3ff;stroke-width:2;stroke-linecap:butt;stroke-linejoin:miter;stroke-miterlimit:4;stroke-dasharray:none;stroke-opacity:1" />
    <path
       inkscape:connector-curvature="0"
       id="path4138"
       d="m 279.43507,149.05209 40.10662,0"
       style="fill:none;fill-rule:evenodd;stroke:#00b3ff;stroke-width:2;stroke-linecap:butt;stroke-linejoin:miter;stroke-miterlimit:4;stroke-dasharray:none;stroke-opacity:1" />
    <path
       inkscape:connector-curvature="0"
       id="path4138-3"
       d="m 351.88687,149.2932 38.67806,0"
       style="fill:none;fill-rule:evenodd;stroke:#00b3ff;stroke-width:2;stroke-linecap:butt;stroke-linejoin:miter;stroke-miterlimit:4;stroke-dasharray:none;stroke-opacity:1" />
    <ellipse
       ry="2.7835569"
       rx="2.6049857"
       cy="149.20026"
       cx="318.77097"
       id="path4170"
       style="fill:#00528c;fill-opacity:1;stroke:#00528c;stroke-width:0.57599998;stroke-miterlimit:4;stroke-dasharray:none;stroke-opacity:1" />
    <ellipse
       ry="2.7835569"
       rx="2.6049857"
       cy="149.23831"
       cx="351.25574"
       id="path4170-6"
       style="fill:#00528c;fill-opacity:1;stroke:#00528c;stroke-width:0.57574308;stroke-miterlimit:4;stroke-dasharray:none;stroke-opacity:1" />
    <ellipse
       ry="2.7835569"
       rx="2.6049857"
       cy="127.20023"
       cx="351.09241"
       id="path4170-6-7"
       style="fill:#00528c;fill-opacity:1;stroke:#00528c;stroke-width:0.57599998;stroke-miterlimit:4;stroke-dasharray:none;stroke-opacity:1" />
    <path
       inkscape:connector-curvature="0"
       id="path4189-1"
       d="M 428.46129,127.53469 395.5092,149.43723"
       style="fill:none;fill-rule:evenodd;stroke:#00b3ff;stroke-width:2;stroke-linecap:butt;stroke-linejoin:miter;stroke-miterlimit:4;stroke-dasharray:none;stroke-opacity:1" />
    <path
       inkscape:connector-curvature="0"
       id="path4138-2"
       d="m 356.57792,149.23066 40.10662,0"
       style="fill:none;fill-rule:evenodd;stroke:#00b3ff;stroke-width:2;stroke-linecap:butt;stroke-linejoin:miter;stroke-miterlimit:4;stroke-dasharray:none;stroke-opacity:1" />
    <path
       inkscape:connector-curvature="0"
       id="path4138-3-7"
       d="m 429.02972,149.47177 38.67806,0"
       style="fill:none;fill-rule:evenodd;stroke:#00b3ff;stroke-width:2;stroke-linecap:butt;stroke-linejoin:miter;stroke-miterlimit:4;stroke-dasharray:none;stroke-opacity:1" />
    <ellipse
       ry="2.7835569"
       rx="2.6049857"
       cy="149.37883"
       cx="395.91382"
       id="path4170-0"
       style="fill:#00528c;fill-opacity:1;stroke:#00528c;stroke-width:0.57599998;stroke-miterlimit:4;stroke-dasharray:none;stroke-opacity:1" />
    <ellipse
       ry="2.7835569"
       rx="2.6049857"
       cy="149.41689"
       cx="428.39859"
       id="path4170-6-9"
       style="fill:#00528c;fill-opacity:1;stroke:#00528c;stroke-width:0.57574308;stroke-miterlimit:4;stroke-dasharray:none;stroke-opacity:1" />
    <ellipse
       ry="2.7835569"
       rx="2.6049857"
       cy="127.37881"
       cx="428.23526"
       id="path4170-6-7-3"
       style="fill:#00528c;fill-opacity:1;stroke:#00528c;stroke-width:0.57599998;stroke-miterlimit:4;stroke-dasharray:none;stroke-opacity:1" />
    <g
       id="g5527"
       ns0:preamble=""
       ns0:text="$x$"
       transform="matrix(2.1216836,0,0,1.8948064,-143.83623,-92.907258)">
      <defs
         id="defs5529">
        <g
           id="g5531">
          <symbol
             id="textext-a9a45495-0"
             overflow="visible"
             style="overflow:visible">
            <path
               id="path5534"
               d=""
               style="stroke:none"
               inkscape:connector-curvature="0" />
          </symbol>
          <symbol
             id="textext-a9a45495-1"
             overflow="visible"
             style="overflow:visible">
            <path
               id="path5537"
               d="M 3.328125,-3.015625 C 3.390625,-3.265625 3.625,-4.1875 4.3125,-4.1875 c 0.046875,0 0.296875,0 0.5,0.125 C 4.53125,-4 4.34375,-3.765625 4.34375,-3.515625 c 0,0.15625 0.109375,0.34375 0.375,0.34375 0.21875,0 0.53125,-0.171875 0.53125,-0.578125 0,-0.515625 -0.578125,-0.65625 -0.921875,-0.65625 -0.578125,0 -0.921875,0.53125 -1.046875,0.75 -0.25,-0.65625 -0.78125,-0.75 -1.078125,-0.75 -1.03125,0 -1.609375,1.28125 -1.609375,1.53125 0,0.109375 0.109375,0.109375 0.125,0.109375 0.078125,0 0.109375,-0.03125 0.125,-0.109375 0.34375,-1.0625 1,-1.3125 1.34375,-1.3125 0.1875,0 0.53125,0.09375 0.53125,0.671875 0,0.3125 -0.171875,0.96875 -0.53125,2.375 -0.15625,0.609375 -0.515625,1.03125 -0.953125,1.03125 -0.0625,0 -0.28125,0 -0.5,-0.125 0.25,-0.0625 0.46875,-0.265625 0.46875,-0.546875 0,-0.265625 -0.21875,-0.34375 -0.359375,-0.34375 -0.3125,0 -0.546875,0.25 -0.546875,0.578125 0,0.453125 0.484375,0.65625 0.921875,0.65625 0.671875,0 1.03125,-0.703125 1.046875,-0.75 0.125,0.359375 0.484375,0.75 1.078125,0.75 1.03125,0 1.59375,-1.28125 1.59375,-1.53125 0,-0.109375 -0.078125,-0.109375 -0.109375,-0.109375 -0.09375,0 -0.109375,0.046875 -0.140625,0.109375 -0.328125,1.078125 -1,1.3125 -1.3125,1.3125 -0.390625,0 -0.546875,-0.3125 -0.546875,-0.65625 0,-0.21875 0.046875,-0.4375 0.15625,-0.875 z m 0,0"
               style="stroke:none"
               inkscape:connector-curvature="0" />
          </symbol>
        </g>
      </defs>
      <g
         id="textext-a9a45495-2">
        <g
           id="g5540"
           style="fill:#000000;fill-opacity:1">
          <use
             id="use5542"
             y="134.765"
             x="223.43201"
             xlink:href="#textext-a9a45495-1"
             width="100%"
             height="100%" />
        </g>
      </g>
    </g>
    <g
       id="g6383"
       transform="matrix(2.1216836,0,0,1.8948064,-66.676405,-95.440378)"
       ns0:preamble=""
       ns0:text="$y$">
      <defs
         id="defs6385">
        <g
           id="g6387">
          <symbol
             id="textext-129d527c-0"
             overflow="visible">
            <path
               id="path6390"
               d=""
               style="stroke:none;" />
          </symbol>
          <symbol
             id="textext-129d527c-1"
             overflow="visible">
            <path
               id="path6393"
               d="M 4.84375 -3.796875 C 4.890625 -3.9375 4.890625 -3.953125 4.890625 -4.03125 C 4.890625 -4.203125 4.75 -4.296875 4.59375 -4.296875 C 4.5 -4.296875 4.34375 -4.234375 4.25 -4.09375 C 4.234375 -4.03125 4.140625 -3.734375 4.109375 -3.546875 C 4.03125 -3.296875 3.96875 -3.015625 3.90625 -2.75 L 3.453125 -0.953125 C 3.421875 -0.8125 2.984375 -0.109375 2.328125 -0.109375 C 1.828125 -0.109375 1.71875 -0.546875 1.71875 -0.921875 C 1.71875 -1.375 1.890625 -2 2.21875 -2.875 C 2.375 -3.28125 2.421875 -3.390625 2.421875 -3.59375 C 2.421875 -4.03125 2.109375 -4.40625 1.609375 -4.40625 C 0.65625 -4.40625 0.296875 -2.953125 0.296875 -2.875 C 0.296875 -2.765625 0.390625 -2.765625 0.40625 -2.765625 C 0.515625 -2.765625 0.515625 -2.796875 0.5625 -2.953125 C 0.84375 -3.890625 1.234375 -4.1875 1.578125 -4.1875 C 1.65625 -4.1875 1.828125 -4.1875 1.828125 -3.875 C 1.828125 -3.625 1.71875 -3.359375 1.65625 -3.171875 C 1.25 -2.109375 1.078125 -1.546875 1.078125 -1.078125 C 1.078125 -0.1875 1.703125 0.109375 2.296875 0.109375 C 2.6875 0.109375 3.015625 -0.0625 3.296875 -0.34375 C 3.171875 0.171875 3.046875 0.671875 2.65625 1.203125 C 2.390625 1.53125 2.015625 1.828125 1.5625 1.828125 C 1.421875 1.828125 0.96875 1.796875 0.796875 1.40625 C 0.953125 1.40625 1.09375 1.40625 1.21875 1.28125 C 1.328125 1.203125 1.421875 1.0625 1.421875 0.875 C 1.421875 0.5625 1.15625 0.53125 1.0625 0.53125 C 0.828125 0.53125 0.5 0.6875 0.5 1.171875 C 0.5 1.671875 0.9375 2.046875 1.5625 2.046875 C 2.578125 2.046875 3.609375 1.140625 3.890625 0.015625 Z M 4.84375 -3.796875 "
               style="stroke:none;" />
          </symbol>
        </g>
      </defs>
      <g
         id="textext-129d527c-2">
        <g
           id="g6396"
           style="fill:rgb(0%,0%,0%);fill-opacity:1;">
          <use
             id="use6398"
             y="134.765"
             x="223.432"
             xlink:href="#textext-129d527c-1" />
        </g>
      </g>
    </g>
  </g>
</svg>
