<?xml version="1.0" encoding="UTF-8" standalone="no"?>
<!-- Created with Inkscape (http://www.inkscape.org/) -->

<svg
   xmlns:ns0="http://www.iki.fi/pav/software/textext/"
   xmlns:dc="http://purl.org/dc/elements/1.1/"
   xmlns:cc="http://creativecommons.org/ns#"
   xmlns:rdf="http://www.w3.org/1999/02/22-rdf-syntax-ns#"
   xmlns:svg="http://www.w3.org/2000/svg"
   xmlns="http://www.w3.org/2000/svg"
   xmlns:xlink="http://www.w3.org/1999/xlink"
   xmlns:sodipodi="http://sodipodi.sourceforge.net/DTD/sodipodi-0.dtd"
   xmlns:inkscape="http://www.inkscape.org/namespaces/inkscape"
   inkscape:version="0.91 r13725"
   version="1.1"
   id="svg6191"
   viewBox="0 0 439.86265 282.22755"
   height="79.650887mm"
   width="124.13902mm"
   sodipodi:docname="implication_circuit.svg">
  <sodipodi:namedview
     inkscape:window-maximized="1"
     inkscape:window-y="0"
     inkscape:window-x="0"
     inkscape:window-height="717"
     inkscape:window-width="1366"
     showgrid="false"
     inkscape:current-layer="layer1"
     inkscape:document-units="px"
     inkscape:cy="131.52149"
     inkscape:cx="160.55212"
     inkscape:zoom="0.98994949"
     inkscape:pageshadow="2"
     inkscape:pageopacity="0.0"
     borderopacity="1.0"
     bordercolor="#666666"
     pagecolor="#ffffff"
     id="base"
     showguides="false"
     fit-margin-top="0"
     fit-margin-left="0"
     fit-margin-right="0"
     fit-margin-bottom="0">
    <inkscape:grid
       type="xygrid"
       id="grid6234"
       originx="-85.42857"
       originy="-731.57383" />
  </sodipodi:namedview>
  <defs
     id="defs6193" />
  <metadata
     id="metadata6196">
    <rdf:RDF>
      <cc:Work
         rdf:about="">
        <dc:format>image/svg+xml</dc:format>
        <dc:type
           rdf:resource="http://purl.org/dc/dcmitype/StillImage" />
        <dc:title></dc:title>
      </cc:Work>
    </rdf:RDF>
  </metadata>
  <g
     inkscape:label="Layer 1"
     inkscape:groupmode="layer"
     id="layer1"
     transform="translate(-85.428575,-38.560856)">
    <path
       inkscape:connector-curvature="0"
       style="fill:none;stroke:#000000;stroke-width:2;stroke-linecap:butt;stroke-linejoin:miter;stroke-opacity:1"
       d="m 437.14286,242.3622 c 20,0 25,0 25,0"
       id="path3059-3"
       sodipodi:nodetypes="cc" />
    <path
       inkscape:connector-curvature="0"
       style="fill:none;stroke:#000000;stroke-width:2;stroke-linecap:butt;stroke-linejoin:miter;stroke-miterlimit:4;stroke-dasharray:none;stroke-opacity:1"
       d="m 398.14286,232.3622 -40.64721,0"
       id="path3061-6" />
    <path
       inkscape:connector-curvature="0"
       style="fill:none;stroke:#000000;stroke-width:2;stroke-linecap:butt;stroke-linejoin:miter;stroke-miterlimit:4;stroke-dasharray:none;stroke-opacity:1"
       d="m 399.14286,252.3622 -42.9099,0"
       id="path3944-7" />
    <g
       id="g2560"
       inkscape:label="Layer 1"
       transform="translate(393.64285,177.8622)">
      <path
         inkscape:connector-curvature="0"
         style="fill:#000000;fill-opacity:1;fill-rule:evenodd;stroke:none;stroke-width:3;stroke-linecap:butt;stroke-linejoin:miter;stroke-opacity:1"
         d="m -2.40625,44.5 2,2.4375 c 0,0 5.65625,7.000049 5.65625,17.5625 0,10.562451 -5.65625,17.5625 -5.65625,17.5625 l -2,2.4375 3.15625,0 14,0 c 2.408076,10e-7 7.689699,0.02451 13.625,-2.40625 5.935301,-2.430764 12.536536,-7.343266 17.6875,-16.875 L 44.75,64.5 46.0625,63.78125 C 35.759387,44.71559 19.506574,44.5 14.75,44.5 l -14,0 -3.15625,0 z m 5.875,3 11.28125,0 c 4.684173,0 18.28685,-0.130207 27.96875,17 C 37.951964,72.929075 32.197469,77.18391 27,79.3125 21.639339,81.507924 17.158075,81.500001 14.75,81.5 l -11.25,0 c 1.8735884,-3.108434 4.75,-9.04935 4.75,-17 0,-7.973354 -2.9085314,-13.900185 -4.78125,-17 z"
         id="path4973"
         sodipodi:nodetypes="ccsccccscccccccccsccsc" />
    </g>
    <path
       inkscape:connector-curvature="0"
       style="fill:none;stroke:#000000;stroke-width:2;stroke-linecap:butt;stroke-linejoin:miter;stroke-miterlimit:4;stroke-dasharray:none;stroke-opacity:1"
       d="m 130.11747,137.032 -0.0817,96.08778"
       id="path3059-5"
       sodipodi:nodetypes="cc" />
    <path
       inkscape:connector-curvature="0"
       style="fill:none;stroke:#000000;stroke-width:1.77605844;stroke-linecap:butt;stroke-linejoin:miter;stroke-opacity:1"
       d="m 130.4416,98.060439 0.15094,-18.925927"
       id="path3061-3" />
    <path
       inkscape:connector-curvature="0"
       style="display:inline;overflow:visible;visibility:visible;fill:#000000;fill-opacity:1;stroke:none;stroke-width:3;stroke-linejoin:miter;stroke-opacity:1;marker:none;enable-background:accumulate"
       d="m 152.84787,98.112636 -2.4062,-0.01191 -39.99921,-0.198387 -2.4062,-0.01191 1.04892,1.705646 19.74154,32.455635 2.68745,0.0133 20.25766,-32.25724 1.07604,-1.695111 z m -4.83127,2.341874 -17.8206,28.40021 -17.3662,-28.57473 35.1868,0.17452 z"
       id="path2638"
       sodipodi:nodetypes="ccccccccccccc" />
    <ellipse
       cy="-131.22011"
       cx="133.6543"
       style="display:inline;overflow:visible;visibility:visible;fill:none;fill-opacity:1;stroke:#000000;stroke-width:2.66409373;stroke-linejoin:miter;stroke-opacity:1;marker:none;enable-background:accumulate"
       id="path2671"
       transform="matrix(-0.00797521,0.9999682,-0.9999877,-0.00495975,0,0)"
       rx="3.1544216"
       ry="3.99997" />
    <path
       inkscape:connector-curvature="0"
       style="fill:none;stroke:#000000;stroke-width:2;stroke-linecap:butt;stroke-linejoin:miter;stroke-miterlimit:4;stroke-dasharray:none;stroke-opacity:1"
       d="m 217.53628,138.01553 -0.0891,53.82561"
       id="path3059-5-1"
       sodipodi:nodetypes="cc" />
    <path
       inkscape:connector-curvature="0"
       style="fill:none;stroke:#000000;stroke-width:1.77605844;stroke-linecap:butt;stroke-linejoin:miter;stroke-opacity:1"
       d="m 217.85668,98.707418 0.15094,-18.925931"
       id="path3061-3-0" />
    <path
       inkscape:connector-curvature="0"
       style="display:inline;overflow:visible;visibility:visible;fill:#000000;fill-opacity:1;stroke:none;stroke-width:3;stroke-linejoin:miter;stroke-opacity:1;marker:none;enable-background:accumulate"
       d="m 240.26295,98.759616 -2.4062,-0.01191 -39.99921,-0.198387 -2.4062,-0.01191 1.04892,1.705641 19.74154,32.45564 2.68745,0.0133 20.25766,-32.25724 1.07604,-1.695111 z m -4.83127,2.341874 -17.8206,28.4002 -17.3662,-28.57472 35.1868,0.17452 z"
       id="path2638-2"
       sodipodi:nodetypes="ccccccccccccc" />
    <ellipse
       cy="-218.63773"
       cx="133.86801"
       style="display:inline;overflow:visible;visibility:visible;fill:none;fill-opacity:1;stroke:#000000;stroke-width:2.66409373;stroke-linejoin:miter;stroke-opacity:1;marker:none;enable-background:accumulate"
       id="path2671-5"
       transform="matrix(-0.00797521,0.9999682,-0.9999877,-0.00495975,0,0)"
       rx="3.1544216"
       ry="3.99997" />
    <path
       style="fill:none;fill-rule:evenodd;stroke:#000000;stroke-width:2;stroke-linecap:butt;stroke-linejoin:miter;stroke-miterlimit:4;stroke-dasharray:none;stroke-opacity:1"
       d="M 131.07142,79.862181 90.357143,80.219324"
       id="path7552"
       inkscape:connector-curvature="0" />
    <path
       style="fill:none;fill-rule:evenodd;stroke:#000000;stroke-width:1.96597159;stroke-linecap:butt;stroke-linejoin:miter;stroke-miterlimit:4;stroke-dasharray:none;stroke-opacity:1"
       d="m 218.57004,80.754798 -39.28292,0.357667"
       id="path7552-4"
       inkscape:connector-curvature="0" />
    <ellipse
       style="fill:#000000;fill-opacity:1;stroke:#000000;stroke-width:4.06632471;stroke-miterlimit:4;stroke-dasharray:none;stroke-opacity:1"
       id="path7569"
       cx="179.64287"
       cy="80.93364"
       ry="2.5382662"
       rx="2.1811233" />
    <ellipse
       style="fill:#000000;fill-opacity:1;stroke:#000000;stroke-width:4.06632471;stroke-miterlimit:4;stroke-dasharray:none;stroke-opacity:1"
       id="path7569-6"
       cx="89.64286"
       cy="79.862206"
       ry="2.5382662"
       rx="2.1811233" />
  </g>
  <g
     id="g6427"
     ns0:preamble=""
     ns0:text="$x \\Rightarrow y$"
     transform="matrix(2,0,0,2,-59.164609,-61.794365)">
    <defs
       id="defs6429">
      <g
         id="g6431">
        <symbol
           id="textext-2d525abb-0"
           overflow="visible"
           style="overflow:visible">
          <path
             id="path6434"
             d=""
             style="stroke:none"
             inkscape:connector-curvature="0" />
        </symbol>
        <symbol
           id="textext-2d525abb-1"
           overflow="visible"
           style="overflow:visible">
          <path
             id="path6437"
             d="M 3.328125,-3.015625 C 3.390625,-3.265625 3.625,-4.1875 4.3125,-4.1875 c 0.046875,0 0.296875,0 0.5,0.125 C 4.53125,-4 4.34375,-3.765625 4.34375,-3.515625 c 0,0.15625 0.109375,0.34375 0.375,0.34375 0.21875,0 0.53125,-0.171875 0.53125,-0.578125 0,-0.515625 -0.578125,-0.65625 -0.921875,-0.65625 -0.578125,0 -0.921875,0.53125 -1.046875,0.75 -0.25,-0.65625 -0.78125,-0.75 -1.078125,-0.75 -1.03125,0 -1.609375,1.28125 -1.609375,1.53125 0,0.109375 0.109375,0.109375 0.125,0.109375 0.078125,0 0.109375,-0.03125 0.125,-0.109375 0.34375,-1.0625 1,-1.3125 1.34375,-1.3125 0.1875,0 0.53125,0.09375 0.53125,0.671875 0,0.3125 -0.171875,0.96875 -0.53125,2.375 -0.15625,0.609375 -0.515625,1.03125 -0.953125,1.03125 -0.0625,0 -0.28125,0 -0.5,-0.125 0.25,-0.0625 0.46875,-0.265625 0.46875,-0.546875 0,-0.265625 -0.21875,-0.34375 -0.359375,-0.34375 -0.3125,0 -0.546875,0.25 -0.546875,0.578125 0,0.453125 0.484375,0.65625 0.921875,0.65625 0.671875,0 1.03125,-0.703125 1.046875,-0.75 0.125,0.359375 0.484375,0.75 1.078125,0.75 1.03125,0 1.59375,-1.28125 1.59375,-1.53125 0,-0.109375 -0.078125,-0.109375 -0.109375,-0.109375 -0.09375,0 -0.109375,0.046875 -0.140625,0.109375 -0.328125,1.078125 -1,1.3125 -1.3125,1.3125 -0.390625,0 -0.546875,-0.3125 -0.546875,-0.65625 0,-0.21875 0.046875,-0.4375 0.15625,-0.875 z m 0,0"
             style="stroke:none"
             inkscape:connector-curvature="0" />
        </symbol>
        <symbol
           id="textext-2d525abb-2"
           overflow="visible"
           style="overflow:visible">
          <path
             id="path6440"
             d="m 4.84375,-3.796875 c 0.046875,-0.140625 0.046875,-0.15625 0.046875,-0.234375 0,-0.171875 -0.140625,-0.265625 -0.296875,-0.265625 -0.09375,0 -0.25,0.0625 -0.34375,0.203125 -0.015625,0.0625 -0.109375,0.359375 -0.140625,0.546875 -0.078125,0.25 -0.140625,0.53125 -0.203125,0.796875 l -0.453125,1.796875 c -0.03125,0.140625 -0.46875,0.84375 -1.125,0.84375 -0.5,0 -0.609375,-0.4375 -0.609375,-0.8125 C 1.71875,-1.375 1.890625,-2 2.21875,-2.875 2.375,-3.28125 2.421875,-3.390625 2.421875,-3.59375 c 0,-0.4375 -0.3125,-0.8125 -0.8125,-0.8125 -0.953125,0 -1.3125,1.453125 -1.3125,1.53125 0,0.109375 0.09375,0.109375 0.109375,0.109375 0.109375,0 0.109375,-0.03125 0.15625,-0.1875 0.28125,-0.9375 0.671875,-1.234375 1.015625,-1.234375 0.078125,0 0.25,0 0.25,0.3125 0,0.25 -0.109375,0.515625 -0.171875,0.703125 -0.40625,1.0625 -0.578125,1.625 -0.578125,2.09375 0,0.890625 0.625,1.1875 1.21875,1.1875 0.390625,0 0.71875,-0.171875 1,-0.453125 -0.125,0.515625 -0.25,1.015625 -0.640625,1.546875 -0.265625,0.328125 -0.640625,0.625 -1.09375,0.625 -0.140625,0 -0.59375,-0.03125 -0.765625,-0.421875 0.15625,0 0.296875,0 0.421875,-0.125 C 1.328125,1.203125 1.421875,1.0625 1.421875,0.875 1.421875,0.5625 1.15625,0.53125 1.0625,0.53125 0.828125,0.53125 0.5,0.6875 0.5,1.171875 c 0,0.5 0.4375,0.875 1.0625,0.875 1.015625,0 2.046875,-0.90625 2.328125,-2.03125 z m 0,0"
             style="stroke:none"
             inkscape:connector-curvature="0" />
        </symbol>
        <symbol
           id="textext-2d525abb-3"
           overflow="visible"
           style="overflow:visible">
          <path
             id="path6443"
             d=""
             style="stroke:none"
             inkscape:connector-curvature="0" />
        </symbol>
        <symbol
           id="textext-2d525abb-4"
           overflow="visible"
           style="overflow:visible">
          <path
             id="path6446"
             d="M 7.234375,-3.265625 C 7.65625,-2.90625 8.171875,-2.640625 8.5,-2.5 8.140625,-2.328125 7.640625,-2.078125 7.234375,-1.71875 l -6.328125,0 c -0.171875,0 -0.359375,0 -0.359375,0.1875 0,0.203125 0.1875,0.203125 0.34375,0.203125 l 5.890625,0 C 6.3125,-0.875 5.796875,0.015625 5.796875,0.140625 5.796875,0.25 5.921875,0.25 5.984375,0.25 6.0625,0.25 6.125,0.25 6.171875,0.171875 6.375,-0.203125 6.65625,-0.734375 7.3125,-1.3125 8,-1.921875 8.65625,-2.1875 9.1875,-2.34375 c 0.15625,-0.0625 0.171875,-0.0625 0.1875,-0.09375 0.03125,0 0.03125,-0.03125 0.03125,-0.0625 0,-0.015625 0,-0.03125 -0.015625,-0.046875 l -0.03125,-0.03125 c -0.015625,0 -0.03125,-0.015625 -0.21875,-0.078125 -1.34375,-0.390625 -2.34375,-1.296875 -2.90625,-2.375 -0.109375,-0.1875 -0.109375,-0.203125 -0.25,-0.203125 -0.0625,0 -0.1875,0 -0.1875,0.109375 0,0.125 0.5,1 0.984375,1.46875 l -5.890625,0 c -0.15625,0 -0.34375,0 -0.34375,0.203125 0,0.1875 0.1875,0.1875 0.359375,0.1875 z m 0,0"
             style="stroke:none"
             inkscape:connector-curvature="0" />
        </symbol>
      </g>
    </defs>
    <g
       id="textext-2d525abb-5">
      <g
         id="g6449"
         style="fill:#000000;fill-opacity:1">
        <use
           id="use6451"
           y="134.765"
           x="223.43201"
           xlink:href="#textext-2d525abb-1"
           width="100%"
           height="100%" />
      </g>
      <g
         id="g6453"
         style="fill:#000000;fill-opacity:1">
        <use
           id="use6455"
           y="134.765"
           x="231.89301"
           xlink:href="#textext-2d525abb-4"
           width="100%"
           height="100%" />
      </g>
      <g
         id="g6457"
         style="fill:#000000;fill-opacity:1">
        <use
           id="use6459"
           y="134.765"
           x="244.623"
           xlink:href="#textext-2d525abb-2"
           width="100%"
           height="100%" />
      </g>
    </g>
  </g>
  <path
     inkscape:connector-curvature="0"
     style="fill:none;stroke:#000000;stroke-width:2;stroke-linecap:butt;stroke-linejoin:miter;stroke-opacity:1"
     d="m 248.68826,142.06 c 20,0 25,0 25,0"
     id="path3059"
     sodipodi:nodetypes="cc" />
  <path
     inkscape:connector-curvature="0"
     style="fill:none;stroke:#000000;stroke-width:2;stroke-linecap:butt;stroke-linejoin:miter;stroke-miterlimit:4;stroke-dasharray:none;stroke-opacity:1"
     d="m 209.68826,132.06 -165.642865,0"
     id="path3061" />
  <path
     inkscape:connector-curvature="0"
     style="fill:none;stroke:#000000;stroke-width:2;stroke-linecap:butt;stroke-linejoin:miter;stroke-miterlimit:4;stroke-dasharray:none;stroke-opacity:1"
     d="m 210.68826,152.06 -78.51778,0"
     id="path3944" />
  <path
     inkscape:connector-curvature="0"
     style="font-style:normal;font-variant:normal;font-weight:normal;font-stretch:normal;font-size:medium;line-height:normal;font-family:'Bitstream Vera Sans';-inkscape-font-specification:'Bitstream Vera Sans';text-indent:0;text-align:start;text-decoration:none;text-decoration-line:none;letter-spacing:normal;word-spacing:normal;text-transform:none;direction:ltr;block-progression:tb;writing-mode:lr-tb;text-anchor:start;display:inline;overflow:visible;visibility:visible;fill:#000000;fill-opacity:1;stroke:none;stroke-width:3;marker:none;enable-background:accumulate"
     d="m 208.68826,122.06 0,1.42857 0,37.14286 0,1.42857 1.42857,0 19.04762,0 c 11.26791,0 20,-9.00005 20,-20 0,-10.99996 -8.73209,-20 -20,-20 0,0 0,0 -19.04762,0 l -1.42857,0 z m 2.85714,2.85714 c 7.97712,0 13.06123,0 15.2381,0 1.19047,0 1.78571,0 2.08333,0 0.14881,0 0.23066,0 0.26786,0 0.0186,0 0.0251,0 0.0298,0 9.76066,0 16.66667,7.63995 16.66667,17.14286 0,9.5029 -7.3822,17.14285 -17.14286,17.14285 l -17.14286,0 0,-34.28571 z"
     id="path2884"
     sodipodi:nodetypes="ccccccsccccsssssccc" />
  <path
     inkscape:connector-curvature="0"
     style="fill:none;stroke:#000000;stroke-width:2.29047227;stroke-linecap:butt;stroke-linejoin:miter;stroke-miterlimit:4;stroke-dasharray:none;stroke-opacity:1"
     d="m 248.72887,203.65901 c 52.72894,0 65.91117,0 65.91117,0"
     id="path3059-2"
     sodipodi:nodetypes="cc" />
  <path
     inkscape:connector-curvature="0"
     style="fill:none;stroke:#000000;stroke-width:2;stroke-linecap:butt;stroke-linejoin:miter;stroke-miterlimit:4;stroke-dasharray:none;stroke-opacity:1"
     d="m 209.72887,193.65901 -164.571435,0"
     id="path3061-7" />
  <path
     inkscape:connector-curvature="0"
     style="fill:none;stroke:#000000;stroke-width:2;stroke-linecap:butt;stroke-linejoin:miter;stroke-miterlimit:4;stroke-dasharray:none;stroke-opacity:1"
     d="m 210.72887,213.65901 -116.903585,0"
     id="path3944-79" />
  <path
     inkscape:connector-curvature="0"
     style="font-style:normal;font-variant:normal;font-weight:normal;font-stretch:normal;font-size:medium;line-height:normal;font-family:'Bitstream Vera Sans';-inkscape-font-specification:'Bitstream Vera Sans';text-indent:0;text-align:start;text-decoration:none;text-decoration-line:none;letter-spacing:normal;word-spacing:normal;text-transform:none;direction:ltr;block-progression:tb;writing-mode:lr-tb;text-anchor:start;display:inline;overflow:visible;visibility:visible;fill:#000000;fill-opacity:1;stroke:none;stroke-width:3;marker:none;enable-background:accumulate"
     d="m 208.72887,183.65901 0,1.42857 0,37.14286 0,1.42857 1.42857,0 19.04762,0 c 11.26791,0 20,-9.00005 20,-20 0,-10.99996 -8.73209,-20 -20,-20 0,0 0,0 -19.04762,0 l -1.42857,0 z m 2.85714,2.85714 c 7.97712,0 13.06123,0 15.2381,0 1.19047,0 1.78571,0 2.08333,0 0.14881,0 0.23066,0 0.26786,0 0.0186,0 0.0251,0 0.0298,0 9.76066,0 16.66667,7.63995 16.66667,17.14286 0,9.5029 -7.3822,17.14285 -17.14286,17.14285 l -17.14286,0 0,-34.28571 z"
     id="path2884-8"
     sodipodi:nodetypes="ccccccsccccsssssccc" />
  <path
     inkscape:connector-curvature="0"
     style="fill:none;stroke:#000000;stroke-width:2;stroke-linecap:butt;stroke-linejoin:miter;stroke-opacity:1"
     d="m 247.69841,262.22755 c 20,0 25,0 25,0"
     id="path3059-1"
     sodipodi:nodetypes="cc" />
  <path
     inkscape:connector-curvature="0"
     style="fill:none;stroke:#000000;stroke-width:2;stroke-linecap:butt;stroke-linejoin:miter;stroke-miterlimit:4;stroke-dasharray:none;stroke-opacity:1"
     d="m 208.69842,252.22755 -204.5714336,0"
     id="path3061-0" />
  <path
     inkscape:connector-curvature="0"
     style="fill:none;stroke:#000000;stroke-width:2;stroke-linecap:butt;stroke-linejoin:miter;stroke-miterlimit:4;stroke-dasharray:none;stroke-opacity:1"
     d="m 209.69842,272.22755 -115.571435,0"
     id="path3944-76" />
  <path
     inkscape:connector-curvature="0"
     style="font-style:normal;font-variant:normal;font-weight:normal;font-stretch:normal;font-size:medium;line-height:normal;font-family:'Bitstream Vera Sans';-inkscape-font-specification:'Bitstream Vera Sans';text-indent:0;text-align:start;text-decoration:none;text-decoration-line:none;letter-spacing:normal;word-spacing:normal;text-transform:none;direction:ltr;block-progression:tb;writing-mode:lr-tb;text-anchor:start;display:inline;overflow:visible;visibility:visible;fill:#000000;fill-opacity:1;stroke:none;stroke-width:3;marker:none;enable-background:accumulate"
     d="m 207.69842,242.22755 0,1.42857 0,37.14286 0,1.42857 1.42857,0 19.04761,0 c 11.26791,0 20,-9.00005 20,-20 0,-10.99996 -8.73209,-20 -20,-20 0,0 0,0 -19.04761,0 l -1.42857,0 z m 2.85714,2.85714 c 7.97712,0 13.06122,0 15.23809,0 1.19047,0 1.78571,0 2.08333,0 0.14881,0 0.23066,0 0.26786,0 0.0186,0 0.0251,0 0.0298,0 9.76066,0 16.66667,7.63995 16.66667,17.14286 0,9.5029 -7.3822,17.14285 -17.14286,17.14285 l -17.14285,0 0,-34.28571 z"
     id="path2884-0"
     sodipodi:nodetypes="ccccccsccccsssssccc" />
  <path
     style="fill:none;fill-rule:evenodd;stroke:#000000;stroke-width:2;stroke-linecap:butt;stroke-linejoin:miter;stroke-miterlimit:4;stroke-dasharray:none;stroke-opacity:1"
     d="m 273.0562,141.0234 0,52.02031"
     id="path7081"
     inkscape:connector-curvature="0" />
  <path
     style="fill:none;fill-rule:evenodd;stroke:#000000;stroke-width:2;stroke-linecap:butt;stroke-linejoin:miter;stroke-miterlimit:4;stroke-dasharray:none;stroke-opacity:1"
     d="m 271.79351,213.29625 0,50"
     id="path7083"
     inkscape:connector-curvature="0" />
  <g
     ns0:text="$x$"
     ns0:preamble=""
     transform="matrix(2,0,0,2,-446.67108,-258.96973)"
     id="g7277">
    <defs
       id="defs7279">
      <g
         id="g7281">
        <symbol
           style="overflow:visible"
           overflow="visible"
           id="textext-856d2dce-0">
          <path
             inkscape:connector-curvature="0"
             style="stroke:none"
             d=""
             id="path7284" />
        </symbol>
        <symbol
           style="overflow:visible"
           overflow="visible"
           id="textext-856d2dce-1">
          <path
             inkscape:connector-curvature="0"
             style="stroke:none"
             d="M 3.328125,-3.015625 C 3.390625,-3.265625 3.625,-4.1875 4.3125,-4.1875 c 0.046875,0 0.296875,0 0.5,0.125 C 4.53125,-4 4.34375,-3.765625 4.34375,-3.515625 c 0,0.15625 0.109375,0.34375 0.375,0.34375 0.21875,0 0.53125,-0.171875 0.53125,-0.578125 0,-0.515625 -0.578125,-0.65625 -0.921875,-0.65625 -0.578125,0 -0.921875,0.53125 -1.046875,0.75 -0.25,-0.65625 -0.78125,-0.75 -1.078125,-0.75 -1.03125,0 -1.609375,1.28125 -1.609375,1.53125 0,0.109375 0.109375,0.109375 0.125,0.109375 0.078125,0 0.109375,-0.03125 0.125,-0.109375 0.34375,-1.0625 1,-1.3125 1.34375,-1.3125 0.1875,0 0.53125,0.09375 0.53125,0.671875 0,0.3125 -0.171875,0.96875 -0.53125,2.375 -0.15625,0.609375 -0.515625,1.03125 -0.953125,1.03125 -0.0625,0 -0.28125,0 -0.5,-0.125 0.25,-0.0625 0.46875,-0.265625 0.46875,-0.546875 0,-0.265625 -0.21875,-0.34375 -0.359375,-0.34375 -0.3125,0 -0.546875,0.25 -0.546875,0.578125 0,0.453125 0.484375,0.65625 0.921875,0.65625 0.671875,0 1.03125,-0.703125 1.046875,-0.75 0.125,0.359375 0.484375,0.75 1.078125,0.75 1.03125,0 1.59375,-1.28125 1.59375,-1.53125 0,-0.109375 -0.078125,-0.109375 -0.109375,-0.109375 -0.09375,0 -0.109375,0.046875 -0.140625,0.109375 -0.328125,1.078125 -1,1.3125 -1.3125,1.3125 -0.390625,0 -0.546875,-0.3125 -0.546875,-0.65625 0,-0.21875 0.046875,-0.4375 0.15625,-0.875 z m 0,0"
             id="path7287" />
        </symbol>
      </g>
    </defs>
    <g
       id="textext-856d2dce-2">
      <g
         style="fill:#000000;fill-opacity:1"
         id="g7290">
        <use
           height="100%"
           width="100%"
           xlink:href="#textext-856d2dce-1"
           x="223.43201"
           y="134.765"
           id="use7292" />
      </g>
    </g>
  </g>
  <g
     id="g7460"
     transform="matrix(2,0,0,2,-356.83946,-260.7175)"
     ns0:preamble=""
     ns0:text="$y$">
    <defs
       id="defs7462">
      <g
         id="g7464">
        <symbol
           id="textext-129d527c-0"
           overflow="visible"
           style="overflow:visible">
          <path
             id="path7467"
             d=""
             style="stroke:none"
             inkscape:connector-curvature="0" />
        </symbol>
        <symbol
           id="textext-129d527c-1"
           overflow="visible"
           style="overflow:visible">
          <path
             id="path7470"
             d="m 4.84375,-3.796875 c 0.046875,-0.140625 0.046875,-0.15625 0.046875,-0.234375 0,-0.171875 -0.140625,-0.265625 -0.296875,-0.265625 -0.09375,0 -0.25,0.0625 -0.34375,0.203125 -0.015625,0.0625 -0.109375,0.359375 -0.140625,0.546875 -0.078125,0.25 -0.140625,0.53125 -0.203125,0.796875 l -0.453125,1.796875 c -0.03125,0.140625 -0.46875,0.84375 -1.125,0.84375 -0.5,0 -0.609375,-0.4375 -0.609375,-0.8125 C 1.71875,-1.375 1.890625,-2 2.21875,-2.875 2.375,-3.28125 2.421875,-3.390625 2.421875,-3.59375 c 0,-0.4375 -0.3125,-0.8125 -0.8125,-0.8125 -0.953125,0 -1.3125,1.453125 -1.3125,1.53125 0,0.109375 0.09375,0.109375 0.109375,0.109375 0.109375,0 0.109375,-0.03125 0.15625,-0.1875 0.28125,-0.9375 0.671875,-1.234375 1.015625,-1.234375 0.078125,0 0.25,0 0.25,0.3125 0,0.25 -0.109375,0.515625 -0.171875,0.703125 -0.40625,1.0625 -0.578125,1.625 -0.578125,2.09375 0,0.890625 0.625,1.1875 1.21875,1.1875 0.390625,0 0.71875,-0.171875 1,-0.453125 -0.125,0.515625 -0.25,1.015625 -0.640625,1.546875 -0.265625,0.328125 -0.640625,0.625 -1.09375,0.625 -0.140625,0 -0.59375,-0.03125 -0.765625,-0.421875 0.15625,0 0.296875,0 0.421875,-0.125 C 1.328125,1.203125 1.421875,1.0625 1.421875,0.875 1.421875,0.5625 1.15625,0.53125 1.0625,0.53125 0.828125,0.53125 0.5,0.6875 0.5,1.171875 c 0,0.5 0.4375,0.875 1.0625,0.875 1.015625,0 2.046875,-0.90625 2.328125,-2.03125 z m 0,0"
             style="stroke:none"
             inkscape:connector-curvature="0" />
        </symbol>
      </g>
    </defs>
    <g
       id="textext-129d527c-2">
      <g
         id="g7473"
         style="fill:#000000;fill-opacity:1">
        <use
           id="use7475"
           y="134.765"
           x="223.43201"
           xlink:href="#textext-129d527c-1"
           width="100%"
           height="100%" />
      </g>
    </g>
  </g>
  <path
     style="fill:none;fill-rule:evenodd;stroke:#000000;stroke-width:2;stroke-linecap:butt;stroke-linejoin:miter;stroke-miterlimit:4;stroke-dasharray:none;stroke-opacity:1"
     d="m 94.571425,23.801327 0,248.571423"
     id="path7548"
     inkscape:connector-curvature="0" />
  <path
     style="fill:none;fill-rule:evenodd;stroke:#000000;stroke-width:2;stroke-linecap:butt;stroke-linejoin:miter;stroke-miterlimit:4;stroke-dasharray:none;stroke-opacity:1"
     d="m 4.5714254,23.801327 0,228.571423"
     id="path7550"
     inkscape:connector-curvature="0" />
  <ellipse
     style="fill:#000000;fill-opacity:1;stroke:#000000;stroke-width:4.06632471;stroke-miterlimit:4;stroke-dasharray:none;stroke-opacity:1"
     id="path7569-63"
     cx="44.928574"
     cy="130.94421"
     ry="2.5382662"
     rx="2.1811233" />
  <ellipse
     style="fill:#000000;fill-opacity:1;stroke:#000000;stroke-width:4.06632471;stroke-miterlimit:4;stroke-dasharray:none;stroke-opacity:1"
     id="path7569-9"
     cx="94.378586"
     cy="213.76054"
     ry="2.5382662"
     rx="2.1811233" />
</svg>
